<?xml version="1.0" encoding="utf-8"?>
<!-- Generator: Adobe Illustrator 25.0.0, SVG Export Plug-In . SVG Version: 6.00 Build 0)  -->
<svg version="1.1" id="Calque_1" xmlns="http://www.w3.org/2000/svg" xmlns:xlink="http://www.w3.org/1999/xlink" x="0px" y="0px"
	 viewBox="0 0 211.9 194.6" style="enable-background:new 0 0 211.9 194.6;" xml:space="preserve">
<style type="text/css">
	.st0{fill:#FFFFFF;}
</style>
<path class="st0" d="M100.7,5.7v43.8c0,0-17-37.7-48.1-43.8c7.5,0.5,14.8,2.4,21.5,5.6c4.1,1.9,8.6,2.9,13.1,2.7
	C92.5,13.6,98.4,11.9,100.7,5.7z"/>
<path class="st0" d="M0,194.6v-43.9c0,0,17,37.7,48.1,43.9c-7.5-0.5-14.8-2.4-21.5-5.6c-4.1-1.9-8.6-2.9-13.1-2.7
	C8.2,186.5,2.4,188.3,0,194.6z"/>
<path class="st0" d="M206.8,65.8C183.1-4.5,119.2,0.1,119.2,0.1c50.4,0,50.9,62.4,50.4,74.9c-0.1,2.3-0.1,4.5-0.1,6.8v30.8
	c0,2.3,0,4.5,0.1,6.8c0.4,12.5-0.1,74.9-50.4,74.9c0,0,64,4.6,87.6-65.8c0-0.1,0.1-0.2,0.1-0.3c6.7-20.1,6.7-41.9,0-62
	C206.8,66,206.8,65.9,206.8,65.8z"/>
<path class="st0" d="M116.9,132.8c-5.9-17.9-18.8-32.7-35.7-41l-19.8-9.9C-11.3,48.4,33,10.6,33,10.6S1.9,24.4,0,59.3
	c-0.2,3.6,0.8,8.1,2.3,12.9c5.9,17.9,18.8,32.7,35.7,41l19.8,9.9c72.6,33.5,28.3,71.2,28.3,71.2s31.1-13.8,33-48.7
	C119.4,142,118.4,137.5,116.9,132.8z"/>
</svg>
